<svg width="24" height="24" viewBox="0 0 24 24" fill="none" xmlns="http://www.w3.org/2000/svg">
<path d="M4.94118 7H19.0588C19.3084 7 19.5478 6.89464 19.7243 6.70711C19.9008 6.51957 20 6.26522 20 6C20 5.73478 19.9008 5.48043 19.7243 5.29289C19.5478 5.10536 19.3084 5 19.0588 5H4.94118C4.69156 5 4.45217 5.10536 4.27566 5.29289C4.09916 5.48043 4 5.73478 4 6C4 6.26522 4.09916 6.51957 4.27566 6.70711C4.45217 6.89464 4.69156 7 4.94118 7ZM19.0588 11H4.94118C4.69156 11 4.45217 11.1054 4.27566 11.2929C4.09916 11.4804 4 11.7348 4 12C4 12.2652 4.09916 12.5196 4.27566 12.7071C4.45217 12.8946 4.69156 13 4.94118 13H19.0588C19.3084 13 19.5478 12.8946 19.7243 12.7071C19.9008 12.5196 20 12.2652 20 12C20 11.7348 19.9008 11.4804 19.7243 11.2929C19.5478 11.1054 19.3084 11 19.0588 11ZM19.0588 17H4.94118C4.69156 17 4.45217 17.1054 4.27566 17.2929C4.09916 17.4804 4 17.7348 4 18C4 18.2652 4.09916 18.5196 4.27566 18.7071C4.45217 18.8946 4.69156 19 4.94118 19H19.0588C19.3084 19 19.5478 18.8946 19.7243 18.7071C19.9008 18.5196 20 18.2652 20 18C20 17.7348 19.9008 17.4804 19.7243 17.2929C19.5478 17.1054 19.3084 17 19.0588 17Z" fill="#0E0E0E"/>
</svg>
