<svg width="11" height="6" viewBox="0 0 11 6" fill="none" xmlns="http://www.w3.org/2000/svg">
<path d="M9.84049 0.279313C9.66276 0.100415 9.42233 0 9.17171 0C8.9211 0 8.68067 0.100415 8.50293 0.279313L5.09738 3.67957L1.73925 0.279313C1.56152 0.100415 1.32109 0 1.07047 0C0.819861 0 0.579431 0.100415 0.401695 0.279313C0.312782 0.368606 0.24221 0.474841 0.194049 0.59189C0.145889 0.708939 0.121094 0.834485 0.121094 0.961285C0.121094 1.08809 0.145889 1.21363 0.194049 1.33068C0.24221 1.44773 0.312782 1.55396 0.401695 1.64326L4.42386 5.71588C4.51204 5.80591 4.61696 5.87736 4.73256 5.92613C4.84816 5.97489 4.97215 6 5.09738 6C5.22261 6 5.3466 5.97489 5.4622 5.92613C5.57779 5.87736 5.68271 5.80591 5.7709 5.71588L9.84049 1.64326C9.9294 1.55396 9.99998 1.44773 10.0481 1.33068C10.0963 1.21363 10.1211 1.08809 10.1211 0.961285C10.1211 0.834485 10.0963 0.708939 10.0481 0.59189C9.99998 0.474841 9.9294 0.368606 9.84049 0.279313Z" fill="#949494"/>
</svg>
